# xmcd CD database file generated by OrangeCD 6.3
#
# Track frame offsets:
#	150
#	27827
#	47832
#	66078
#	104886
#	130189
#	158481
#	191420
#	213496
#	238394
#	264408
#	299386
#	321610
#
# Disc length: 4682 seconds
#
# Revision: 1
# Processed by: cddbd v1.5.2PL0 Copyright (c) Steve Scherf et al.
# Submitted via: OrangeCD 6.3
#
DISCID=ca12480d
DTITLE=irmandade do Blues - Ao Vivo
DYEAR=2008
DGENRE=
TTITLE0=Give It Up
TTITLE1=I'm Movin'
TTITLE2=Highway 49
TTITLE3=Mean Old World
TTITLE4=When I Be Back
TTITLE5=Crossroads
TTITLE6=Good Feelings
TTITLE7=South Bound Train
TTITLE8=Mercedes Benz
TTITLE9=I Got The Blues
TTITLE10=Feelin' Alright
TTITLE11=I Got A Woman
TTITLE12=Rock And Roll
EXTD=
EXTT0=
EXTT1=
EXTT2=
EXTT3=
EXTT4=
EXTT5=
EXTT6=
EXTT7=
EXTT8=
EXTT9=
EXTT10=
EXTT11=
EXTT12=
PLAYORDER=
